<svg width="241" height="83" viewBox="0 0 241 83" fill="none" xmlns="http://www.w3.org/2000/svg">
<path d="M130.676 69.0929C127.946 66.7431 125.31 64.2346 122.77 61.5673C120.293 58.8365 117.975 56.0422 115.816 53.1844C113.72 50.3265 111.783 47.437 110.005 44.5156C108.29 41.5308 106.829 38.6095 105.623 35.7516C103.464 38.1014 101.304 40.4829 99.145 42.8962C97.0493 45.246 95.1758 47.6275 93.5246 50.0408C91.8735 52.3905 90.5398 54.772 89.5237 57.1853C88.4441 59.5351 87.9043 61.8848 87.9043 64.2346C87.9043 67.0289 88.3806 69.4422 89.3332 71.4744C90.2223 73.4431 91.4289 75.0626 92.9531 76.3327C94.4773 77.6028 96.2237 78.5237 98.1924 79.0953C100.161 79.6668 102.193 79.9526 104.289 79.9526C108.481 79.9526 112.926 78.9682 117.626 76.9995C122.325 75.0308 126.675 72.3953 130.676 69.0929ZM118.864 12.6033C118.864 10.3806 118.356 8.79287 117.34 7.84027C116.387 6.82416 115.339 6.3161 114.196 6.3161C113.244 6.3161 112.227 6.63363 111.148 7.26871C110.132 7.90378 109.179 8.82463 108.29 10.0313C107.464 11.1744 106.766 12.5715 106.194 14.2227C105.623 15.8739 105.337 17.6839 105.337 19.6526C105.337 23.2725 106.004 27.1147 107.337 31.1791C108.925 29.528 110.418 27.9085 111.815 26.3208C113.212 24.7332 114.418 23.1772 115.435 21.6531C116.514 20.0654 117.34 18.5412 117.911 17.0806C118.546 15.5564 118.864 14.064 118.864 12.6033ZM155.539 82.1436C155.539 82.3341 155.412 82.5246 155.158 82.7152C154.904 82.9057 154.523 83.0009 154.015 83.0009C150.205 81.7943 146.458 80.1114 142.774 77.9521C139.091 75.7294 135.503 73.1573 132.01 70.236C129.597 72.0777 127.088 73.7607 124.484 75.2848C121.881 76.809 119.213 78.1109 116.482 79.1905C113.815 80.2701 111.116 81.0957 108.385 81.6673C105.718 82.2389 103.146 82.5246 100.669 82.5246C98.2559 82.5246 95.9697 82.1754 93.8104 81.4768C91.6512 80.8417 89.7777 79.8573 88.19 78.5237C86.6024 77.1265 85.364 75.4118 84.4749 73.3796C83.5223 71.3474 83.046 68.9659 83.046 66.2351C83.046 63.3137 83.7128 60.4559 85.0464 57.6616C86.3801 54.8038 88.0948 52.0095 90.1905 49.2787C92.2863 46.5479 94.6043 43.8806 97.1446 41.2768C99.7483 38.673 102.289 36.1327 104.765 33.6559C102.924 28.7024 102.003 24.2251 102.003 20.2242C102.003 17.8744 102.416 15.7151 103.241 13.7464C104.13 11.7777 105.242 10.0948 106.575 8.69761C107.909 7.30046 109.37 6.22084 110.957 5.45875C112.609 4.63316 114.164 4.22036 115.625 4.22036C117.34 4.22036 118.896 4.79193 120.293 5.93506C121.69 7.01467 122.389 8.82463 122.389 11.3649C122.389 12.9526 121.976 14.6038 121.15 16.3185C120.388 18.0332 119.34 19.8114 118.007 21.6531C116.736 23.4313 115.212 25.3047 113.434 27.2734C111.719 29.1787 109.909 31.1474 108.004 33.1796C110.1 38.9588 113.212 44.8332 117.34 50.8028C121.531 56.709 126.612 62.2341 132.582 67.3782C135.82 64.4569 138.424 61.2498 140.393 57.7569C142.362 54.264 143.346 50.6123 143.346 46.8019C143.346 45.5317 143.155 44.2616 142.774 42.9915C142.457 41.6578 141.79 40.2607 140.774 38.8C140.774 38.673 140.964 38.546 141.346 38.4189C141.727 38.2284 142.076 38.1332 142.393 38.1332C143.282 38.1332 143.981 38.4507 144.489 39.0858C145.061 39.6573 145.473 40.3559 145.728 41.1815C146.045 42.0071 146.236 42.8644 146.299 43.7535C146.426 44.5791 146.49 45.246 146.49 45.754C146.49 49.9455 145.315 54.0099 142.965 57.9474C140.679 61.8213 137.694 65.3777 134.01 68.6166C140.171 73.8877 147.125 78.1744 154.873 81.4768C155.317 81.7308 155.539 81.9531 155.539 82.1436Z" fill="#D0D0D0"/>
<path d="M19.24 48.128C19.24 46.144 19.112 44.496 18.856 43.184C18.632 41.872 18.312 41.216 17.896 41.216C17.64 41.216 17.4 41.408 17.176 41.792C16.952 42.144 16.76 42.656 16.6 43.328C16.472 43.968 16.36 44.736 16.264 45.632C16.2 46.496 16.168 47.44 16.168 48.464C16.168 50.288 16.296 52.256 16.552 54.368C16.808 56.448 17.256 58.464 17.896 60.416C18.344 58.368 18.68 56.272 18.904 54.128C19.128 51.952 19.24 49.952 19.24 48.128ZM39.352 26.336C39.352 26.496 39.288 26.624 39.16 26.72C39.032 26.816 38.872 26.928 38.68 27.056C37.72 27.632 36.936 28.432 36.328 29.456C35.72 30.48 35.224 31.6 34.84 32.816C34.488 34.032 34.248 35.28 34.12 36.56C33.992 37.808 33.928 38.96 33.928 40.016C33.928 40.752 33.96 41.664 34.024 42.752C34.12 43.808 34.216 44.976 34.312 46.256C34.44 47.536 34.536 48.896 34.6 50.336C34.696 51.744 34.744 53.184 34.744 54.656C34.744 56.736 34.616 58.752 34.36 60.704C34.136 62.656 33.672 64.4 32.968 65.936C32.296 67.472 31.352 68.704 30.136 69.632C28.92 70.56 27.336 71.024 25.384 71.024C24.488 71.024 23.64 70.848 22.84 70.496C22.072 70.176 21.352 69.712 20.68 69.104C20.04 68.496 19.448 67.792 18.904 66.992C18.392 66.192 17.928 65.312 17.512 64.352C17.096 65.472 16.6 66.512 16.024 67.472C15.48 68.432 14.872 69.264 14.2 69.968C13.528 70.672 12.792 71.216 11.992 71.6C11.192 71.984 10.344 72.176 9.448 72.176C8.072 72.176 6.904 71.824 5.944 71.12C5.016 70.416 4.248 69.488 3.64 68.336C3.032 67.216 2.552 65.936 2.2 64.496C1.88 63.024 1.64 61.536 1.48 60.032C1.32 58.496 1.208 57.008 1.144 55.568C1.112 54.096 1.08 52.8 1.048 51.68C0.984 49.664 1.016 47.76 1.144 45.968C1.304 44.144 1.48 42.512 1.672 41.072C1.864 39.6 2.056 38.336 2.248 37.28C2.44 36.224 2.568 35.44 2.632 34.928C2.664 34.736 2.856 34.608 3.208 34.544C3.592 34.48 3.928 34.448 4.216 34.448C4.44 34.448 4.632 34.48 4.792 34.544C4.952 34.576 5.032 34.672 5.032 34.832C5.032 35.024 4.952 35.36 4.792 35.84C4.632 36.288 4.392 37.152 4.072 38.432C3.944 39.008 3.8 39.84 3.64 40.928C3.512 41.984 3.384 43.184 3.256 44.528C3.16 45.872 3.08 47.312 3.016 48.848C2.952 50.352 2.92 51.824 2.92 53.264C2.92 54.384 2.968 55.616 3.064 56.96C3.16 58.272 3.32 59.584 3.544 60.896C3.768 62.176 4.072 63.424 4.456 64.64C4.84 65.856 5.304 66.928 5.848 67.856C6.424 68.784 7.096 69.52 7.864 70.064C8.632 70.64 9.528 70.928 10.552 70.928C11.32 70.928 12.024 70.736 12.664 70.352C13.304 69.968 13.896 69.424 14.44 68.72C14.984 68.048 15.464 67.248 15.88 66.32C16.328 65.392 16.728 64.384 17.08 63.296C16.344 61.28 15.8 59.136 15.448 56.864C15.096 54.592 14.92 52.496 14.92 50.576C14.92 49.168 14.968 47.776 15.064 46.4C15.192 45.024 15.368 43.792 15.592 42.704C15.816 41.616 16.104 40.736 16.456 40.064C16.808 39.392 17.224 39.056 17.704 39.056C18.088 39.056 18.424 39.296 18.712 39.776C19.032 40.256 19.288 40.912 19.48 41.744C19.704 42.576 19.864 43.568 19.96 44.72C20.088 45.84 20.152 47.056 20.152 48.368C20.152 50.48 20.008 52.704 19.72 55.04C19.432 57.344 18.984 59.6 18.376 61.808C18.792 62.928 19.272 63.968 19.816 64.928C20.36 65.856 20.968 66.672 21.64 67.376C22.344 68.08 23.112 68.624 23.944 69.008C24.808 69.424 25.752 69.632 26.776 69.632C28.184 69.632 29.336 69.28 30.232 68.576C31.128 67.904 31.832 66.976 32.344 65.792C32.856 64.576 33.208 63.184 33.4 61.616C33.592 60.016 33.688 58.304 33.688 56.48C33.688 54.848 33.624 53.168 33.496 51.44C33.4 49.712 33.288 48 33.16 46.304C33.032 44.576 32.904 42.912 32.776 41.312C32.68 39.68 32.632 38.176 32.632 36.8C32.632 35.808 32.776 34.656 33.064 33.344C33.384 32.032 33.8 30.8 34.312 29.648C34.856 28.464 35.464 27.472 36.136 26.672C36.84 25.84 37.576 25.424 38.344 25.424C38.568 25.424 38.792 25.536 39.016 25.76C39.24 25.952 39.352 26.144 39.352 26.336ZM54.3396 58.208C54.3396 57.728 54.2596 57.344 54.0996 57.056C53.9396 56.736 53.6836 56.576 53.3316 56.576C52.7876 56.576 52.3716 56.848 52.0836 57.392C51.7956 57.904 51.6676 58.56 51.6996 59.36C51.7956 61.056 52.0996 62.48 52.6116 63.632C53.1556 62.896 53.5716 62.064 53.8596 61.136C54.1796 60.208 54.3396 59.232 54.3396 58.208ZM67.2996 58.16C67.0756 58.64 66.8356 59.136 66.5796 59.648C66.3236 60.128 66.0356 60.608 65.7156 61.088C64.0836 63.52 62.4356 65.328 60.7716 66.512C59.1076 67.696 57.5556 68.288 56.1156 68.288C54.2916 68.288 52.8996 67.424 51.9396 65.696C50.8196 66.816 49.5556 67.664 48.1476 68.24C46.7716 68.816 45.4116 69.104 44.0676 69.104C43.2676 69.104 42.4996 68.992 41.7636 68.768C41.0596 68.544 40.4516 68.208 39.9396 67.76C39.3956 67.28 38.9636 66.688 38.6436 65.984C38.3236 65.248 38.1636 64.4 38.1636 63.44C38.1636 62.288 38.4356 61.12 38.9796 59.936C39.4916 58.72 40.2116 57.632 41.1396 56.672C42.0996 55.68 43.2196 54.864 44.4996 54.224C45.7796 53.584 47.1716 53.264 48.6756 53.264C49.8916 53.264 50.8356 53.44 51.5076 53.792C52.1796 54.112 52.5156 54.416 52.5156 54.704C52.5156 54.832 52.4516 54.928 52.3236 54.992C52.1956 55.056 52.0836 55.088 51.9876 55.088C51.9556 55.056 51.9236 55.04 51.8916 55.04H51.8436C51.4596 54.688 51.0276 54.416 50.5476 54.224C50.0676 54 49.3636 53.888 48.4356 53.888C47.1876 53.888 46.0516 54.16 45.0276 54.704C44.0356 55.216 43.1876 55.904 42.4836 56.768C41.7796 57.6 41.2356 58.528 40.8516 59.552C40.4676 60.576 40.2756 61.584 40.2756 62.576C40.2756 64.496 40.7236 65.888 41.6196 66.752C42.5156 67.616 43.6356 68.048 44.9796 68.048C46.0676 68.048 47.2036 67.776 48.3876 67.232C49.5716 66.688 50.6276 65.92 51.5556 64.928C51.0436 63.776 50.7876 62.272 50.7876 60.416C50.7876 59.2 51.0116 58.144 51.4596 57.248C51.9076 56.352 52.5476 55.904 53.3796 55.904C54.5316 55.904 55.1076 56.576 55.1076 57.92C55.1076 59.264 54.9156 60.48 54.5316 61.568C54.1476 62.624 53.6356 63.584 52.9956 64.448C53.8916 66.112 55.1396 66.944 56.7396 66.944C57.9556 66.944 59.2516 66.432 60.6276 65.408C62.0356 64.384 63.4116 62.896 64.7556 60.944C65.0756 60.464 65.3636 59.968 65.6196 59.456C65.8756 58.944 66.1316 58.432 66.3876 57.92L67.2996 58.16ZM73.9668 36.704C73.9668 34.88 73.6628 33.424 73.0547 32.336C72.4788 31.216 71.5028 30.656 70.1268 30.656C69.6468 30.656 69.1988 30.816 68.7828 31.136C68.3988 31.424 68.0628 31.824 67.7748 32.336C67.4868 32.848 67.2628 33.44 67.1028 34.112C66.9428 34.784 66.8628 35.504 66.8628 36.272C66.8628 38.384 66.8788 40.304 66.9108 42.032C66.9428 43.76 66.9748 45.392 67.0068 46.928C67.0708 48.464 67.1348 49.952 67.1988 51.392C67.2628 52.832 67.3268 54.304 67.3908 55.808C68.3188 54.56 69.1828 53.136 69.9828 51.536C70.7828 49.904 71.4708 48.24 72.0468 46.544C72.6548 44.816 73.1188 43.104 73.4388 41.408C73.7908 39.712 73.9668 38.144 73.9668 36.704ZM91.3428 58.16C91.1188 58.64 90.8788 59.136 90.6228 59.648C90.3988 60.16 90.1108 60.64 89.7588 61.088C87.9988 63.584 85.9988 65.552 83.7588 66.992C81.5188 68.4 79.2948 69.104 77.0868 69.104C75.7108 69.104 74.3988 68.784 73.1508 68.144C71.9028 67.536 70.7988 66.544 69.8388 65.168C69.7108 65.008 69.6468 64.864 69.6468 64.736C69.6468 64.448 69.8388 64.304 70.2228 64.304C70.2548 64.304 70.3668 64.336 70.5588 64.4C70.8148 64.4 71.1028 64.496 71.4228 64.688C71.7748 64.848 72.2708 64.928 72.9108 64.928C73.9028 64.928 74.8308 64.752 75.6948 64.4C76.5588 64.048 77.2948 63.6 77.9028 63.056C78.5428 62.48 79.0388 61.84 79.3907 61.136C79.7428 60.4 79.9188 59.648 79.9188 58.88C79.9188 57.92 79.6628 57.088 79.1508 56.384C78.6708 55.68 77.8388 55.328 76.6548 55.328C75.4388 55.328 74.3188 55.76 73.2948 56.624C72.2708 57.456 71.3428 58.48 70.5108 59.696C69.7108 60.88 69.0228 62.144 68.4468 63.488C67.8708 64.8 67.4388 65.952 67.1508 66.944C66.9908 67.488 66.8468 67.824 66.7188 67.952C66.5907 68.08 66.4467 68.144 66.2867 68.144C65.9347 68.144 65.7747 67.808 65.8067 67.136C65.8067 66.848 65.8227 66.496 65.8547 66.08C65.8867 65.664 65.9187 65.216 65.9507 64.736C65.9507 64.256 65.9667 63.776 65.9987 63.296C66.0307 62.784 66.0467 62.32 66.0467 61.904C66.0467 60.464 66.0147 58.816 65.9507 56.96C65.8867 55.072 65.8067 53.136 65.7107 51.152C65.6147 49.136 65.5347 47.136 65.4707 45.152C65.4067 43.168 65.3747 41.344 65.3747 39.68C65.3747 38.368 65.4707 37.104 65.6627 35.888C65.8547 34.64 66.1587 33.552 66.5747 32.624C66.9908 31.664 67.5188 30.912 68.1588 30.368C68.7988 29.792 69.5508 29.504 70.4148 29.504C71.3108 29.504 72.0628 29.664 72.6708 29.984C73.3108 30.272 73.8228 30.704 74.2068 31.28C74.5908 31.824 74.8628 32.496 75.0228 33.296C75.2148 34.064 75.3108 34.912 75.3108 35.84C75.3108 37.44 75.0868 39.2 74.6388 41.12C74.1908 43.008 73.5988 44.912 72.8628 46.832C72.1268 48.752 71.2788 50.608 70.3188 52.4C69.3908 54.16 68.4308 55.696 67.4388 57.008C67.5028 57.968 67.5348 58.96 67.5348 59.984C67.5668 61.008 67.6148 62.096 67.6788 63.248C68.4788 61.52 69.3588 60.032 70.3188 58.784C70.7348 58.24 71.1988 57.712 71.7108 57.2C72.2548 56.656 72.8148 56.176 73.3908 55.76C73.9988 55.344 74.6388 55.008 75.3108 54.752C76.0148 54.496 76.7508 54.368 77.5188 54.368C78.7348 54.368 79.7908 54.672 80.6868 55.28C81.5828 55.888 82.0308 56.864 82.0308 58.208C82.0308 59.488 81.7108 60.576 81.0708 61.472C80.4628 62.368 79.6948 63.12 78.7668 63.728C77.8388 64.304 76.8468 64.736 75.7908 65.024C74.7348 65.312 73.7748 65.488 72.9108 65.552C72.8468 65.552 72.8148 65.568 72.8148 65.6C72.8148 65.664 72.8628 65.76 72.9588 65.888C73.5988 66.624 74.3188 67.152 75.1188 67.472C75.9188 67.792 76.7508 67.952 77.6148 67.952C78.6708 67.952 79.7428 67.76 80.8307 67.376C81.9188 66.96 82.9588 66.432 83.9508 65.792C84.9428 65.12 85.8548 64.368 86.6868 63.536C87.5508 62.672 88.2548 61.808 88.7988 60.944C89.1188 60.464 89.4068 59.968 89.6628 59.456C89.9188 58.944 90.1748 58.432 90.4308 57.92L91.3428 58.16ZM98.1096 55.184C98.1096 54.32 97.8856 53.616 97.4376 53.072C97.0216 52.496 96.3336 52.208 95.3736 52.208C94.8616 52.208 94.3976 52.368 93.9816 52.688C93.5656 53.008 93.2136 53.44 92.9256 53.984C92.6376 54.496 92.4136 55.104 92.2536 55.808C92.0936 56.512 92.0136 57.248 92.0136 58.016C92.0136 59.232 92.1416 60.32 92.3976 61.28C92.6856 62.208 93.0856 63.024 93.5976 63.728C94.2696 63.184 94.8776 62.56 95.4216 61.856C95.9656 61.152 96.4296 60.416 96.8136 59.648C97.2296 58.88 97.5496 58.112 97.7736 57.344C97.9976 56.576 98.1096 55.856 98.1096 55.184ZM110.254 58.16C110.03 58.64 109.79 59.136 109.534 59.648C109.31 60.128 109.022 60.608 108.67 61.088C107.102 63.328 105.31 65.024 103.294 66.176C101.31 67.296 99.4056 67.856 97.5816 67.856C96.5576 67.856 95.5976 67.68 94.7016 67.328C93.8376 66.976 93.0856 66.448 92.4456 65.744C91.8056 65.04 91.2936 64.16 90.9096 63.104C90.5256 62.048 90.3336 60.8 90.3336 59.36C90.3336 58.4 90.4776 57.44 90.7656 56.48C91.0536 55.52 91.4376 54.656 91.9176 53.888C92.4296 53.12 93.0056 52.496 93.6456 52.016C94.3176 51.536 95.0216 51.296 95.7576 51.296C96.9416 51.296 97.8056 51.648 98.3496 52.352C98.8936 53.024 99.1656 53.888 99.1656 54.944C99.1656 56.384 98.7176 57.952 97.8216 59.648C96.9576 61.312 95.7096 62.864 94.0776 64.304C95.2936 65.68 96.8616 66.368 98.7816 66.368C100.222 66.368 101.726 65.936 103.294 65.072C104.862 64.176 106.334 62.8 107.71 60.944C108.062 60.496 108.35 60.016 108.574 59.504C108.83 58.96 109.086 58.432 109.342 57.92L110.254 58.16ZM151.839 46.064C150.655 46.064 149.519 46.192 148.431 46.448C147.375 46.704 146.431 47.008 145.599 47.36C144.799 47.712 144.143 48.08 143.631 48.464C143.151 48.848 142.911 49.184 142.911 49.472C142.911 49.856 143.359 50.048 144.255 50.048C145.791 50.048 147.247 49.68 148.623 48.944C150.031 48.208 151.295 47.248 152.415 46.064H151.839ZM165.807 53.264C165.807 54.832 165.359 56.528 164.463 58.352C163.599 60.176 162.399 61.984 160.863 63.776C159.327 65.568 157.503 67.296 155.391 68.96C153.279 70.624 151.007 72.096 148.575 73.376C146.143 74.656 143.583 75.664 140.895 76.4C138.207 77.168 135.519 77.552 132.831 77.552C132.383 77.552 131.887 77.536 131.343 77.504C130.831 77.472 130.351 77.392 129.903 77.264C129.455 77.168 129.071 76.992 128.751 76.736C128.431 76.512 128.271 76.192 128.271 75.776C128.271 75.2 128.559 74.64 129.135 74.096C129.711 73.584 130.447 73.104 131.343 72.656C132.239 72.208 133.215 71.808 134.271 71.456C135.327 71.104 136.335 70.8 137.295 70.544C138.287 70.288 139.151 70.08 139.887 69.92C140.623 69.792 141.119 69.728 141.375 69.728C141.567 69.728 141.711 69.776 141.807 69.872C141.903 69.968 141.951 70.064 141.951 70.16C141.951 70.32 141.871 70.4 141.711 70.4H141.087C140.255 70.4 139.199 70.56 137.919 70.88C136.639 71.2 135.391 71.6 134.175 72.08C132.959 72.56 131.919 73.088 131.055 73.664C130.191 74.272 129.759 74.832 129.759 75.344C129.759 75.696 129.871 75.968 130.095 76.16C130.351 76.384 130.655 76.56 131.007 76.688C131.359 76.816 131.727 76.896 132.111 76.928C132.495 76.992 132.831 77.024 133.119 77.024C135.391 77.024 137.711 76.64 140.079 75.872C142.479 75.104 144.799 74.08 147.039 72.8C149.311 71.552 151.439 70.096 153.423 68.432C155.439 66.8 157.199 65.104 158.703 63.344C160.207 61.552 161.391 59.776 162.255 58.016C163.119 56.224 163.551 54.56 163.551 53.024C163.551 51.136 162.767 49.568 161.199 48.32C159.663 47.04 157.119 46.304 153.567 46.112C152.127 47.456 150.543 48.544 148.815 49.376C147.119 50.208 145.391 50.624 143.631 50.624C142.383 50.624 141.759 50.32 141.759 49.712C141.759 49.328 142.015 48.896 142.527 48.416C143.071 47.904 143.807 47.424 144.735 46.976C145.695 46.528 146.831 46.16 148.143 45.872C149.455 45.552 150.895 45.392 152.463 45.392H153.039C154.095 44.144 154.943 42.784 155.583 41.312C156.223 39.808 156.543 38.336 156.543 36.896C156.543 35.936 156.367 35.024 156.015 34.16C155.695 33.264 155.151 32.496 154.383 31.856C153.647 31.216 152.671 30.704 151.455 30.32C150.271 29.936 148.831 29.744 147.135 29.744C145.983 29.744 144.383 29.904 142.335 30.224C140.319 30.544 138.127 31.04 135.759 31.712C133.423 32.352 131.039 33.168 128.607 34.16C126.175 35.152 123.967 36.304 121.983 37.616C119.999 38.928 118.383 40.416 117.135 42.08C115.887 43.744 115.263 45.584 115.263 47.6C115.263 47.856 115.215 48.08 115.119 48.272C115.023 48.432 114.927 48.512 114.831 48.512C114.703 48.512 114.607 48.384 114.543 48.128C114.447 47.84 114.399 47.376 114.399 46.736C114.687 44.656 115.535 42.768 116.943 41.072C118.351 39.376 120.095 37.872 122.175 36.56C124.223 35.216 126.479 34.064 128.943 33.104C131.407 32.144 133.839 31.36 136.239 30.752C138.671 30.112 140.927 29.648 143.007 29.36C145.119 29.04 146.847 28.88 148.191 28.88C150.143 28.88 151.791 29.072 153.135 29.456C154.511 29.808 155.631 30.304 156.495 30.944C157.359 31.552 157.983 32.288 158.367 33.152C158.751 34.016 158.943 34.928 158.943 35.888C158.943 37.456 158.511 39.088 157.647 40.784C156.815 42.448 155.679 44 154.239 45.44C156.287 45.536 158.047 45.808 159.519 46.256C160.991 46.672 162.191 47.232 163.119 47.936C164.047 48.608 164.719 49.408 165.135 50.336C165.583 51.232 165.807 52.208 165.807 53.264ZM140.367 65.888C140.367 66.336 140.335 66.656 140.271 66.848C140.207 67.04 140.031 67.136 139.743 67.136C139.103 67.2 138.783 66.56 138.783 65.216C138.751 60.8 138.703 56.768 138.639 53.12C138.607 49.472 138.559 46.32 138.495 43.664C138.463 40.976 138.431 38.848 138.399 37.28C138.367 35.712 138.351 34.816 138.351 34.592C138.351 34.336 138.431 34.16 138.591 34.064C138.751 33.968 138.943 33.888 139.167 33.824C139.423 33.824 139.615 33.904 139.743 34.064C139.903 34.224 139.983 34.416 139.983 34.64C139.983 37.2 139.999 39.84 140.031 42.56C140.063 45.248 140.095 47.936 140.127 50.624C140.191 53.312 140.239 55.952 140.271 58.544C140.335 61.136 140.367 63.584 140.367 65.888ZM184.465 58.208C184.465 57.728 184.385 57.344 184.225 57.056C184.065 56.736 183.809 56.576 183.457 56.576C182.913 56.576 182.497 56.848 182.209 57.392C181.921 57.904 181.793 58.56 181.825 59.36C181.921 61.056 182.225 62.48 182.737 63.632C183.281 62.896 183.697 62.064 183.985 61.136C184.305 60.208 184.465 59.232 184.465 58.208ZM197.425 58.16C197.201 58.64 196.961 59.136 196.705 59.648C196.449 60.128 196.161 60.608 195.841 61.088C194.209 63.52 192.561 65.328 190.897 66.512C189.233 67.696 187.681 68.288 186.241 68.288C184.417 68.288 183.025 67.424 182.065 65.696C180.945 66.816 179.681 67.664 178.273 68.24C176.897 68.816 175.537 69.104 174.193 69.104C173.393 69.104 172.625 68.992 171.889 68.768C171.185 68.544 170.577 68.208 170.065 67.76C169.521 67.28 169.089 66.688 168.769 65.984C168.449 65.248 168.289 64.4 168.289 63.44C168.289 62.288 168.561 61.12 169.105 59.936C169.617 58.72 170.337 57.632 171.265 56.672C172.225 55.68 173.345 54.864 174.625 54.224C175.905 53.584 177.297 53.264 178.801 53.264C180.017 53.264 180.961 53.44 181.633 53.792C182.305 54.112 182.641 54.416 182.641 54.704C182.641 54.832 182.577 54.928 182.449 54.992C182.321 55.056 182.209 55.088 182.113 55.088C182.081 55.056 182.049 55.04 182.017 55.04H181.969C181.585 54.688 181.153 54.416 180.673 54.224C180.193 54 179.489 53.888 178.561 53.888C177.313 53.888 176.177 54.16 175.153 54.704C174.161 55.216 173.313 55.904 172.609 56.768C171.905 57.6 171.361 58.528 170.977 59.552C170.593 60.576 170.401 61.584 170.401 62.576C170.401 64.496 170.849 65.888 171.745 66.752C172.641 67.616 173.761 68.048 175.105 68.048C176.193 68.048 177.329 67.776 178.513 67.232C179.697 66.688 180.753 65.92 181.681 64.928C181.169 63.776 180.913 62.272 180.913 60.416C180.913 59.2 181.137 58.144 181.585 57.248C182.033 56.352 182.673 55.904 183.505 55.904C184.657 55.904 185.233 56.576 185.233 57.92C185.233 59.264 185.041 60.48 184.657 61.568C184.273 62.624 183.761 63.584 183.121 64.448C184.017 66.112 185.265 66.944 186.865 66.944C188.081 66.944 189.377 66.432 190.753 65.408C192.161 64.384 193.537 62.896 194.881 60.944C195.201 60.464 195.489 59.968 195.745 59.456C196.001 58.944 196.257 58.432 196.513 57.92L197.425 58.16ZM204.092 36.704C204.092 34.88 203.788 33.424 203.18 32.336C202.604 31.216 201.628 30.656 200.252 30.656C199.772 30.656 199.324 30.816 198.908 31.136C198.524 31.424 198.188 31.824 197.9 32.336C197.612 32.848 197.388 33.44 197.228 34.112C197.068 34.784 196.988 35.504 196.988 36.272C196.988 38.384 197.004 40.304 197.036 42.032C197.068 43.76 197.1 45.392 197.132 46.928C197.196 48.464 197.26 49.952 197.324 51.392C197.388 52.832 197.452 54.304 197.516 55.808C198.444 54.56 199.308 53.136 200.108 51.536C200.908 49.904 201.596 48.24 202.172 46.544C202.78 44.816 203.244 43.104 203.564 41.408C203.916 39.712 204.092 38.144 204.092 36.704ZM221.468 58.16C221.244 58.64 221.004 59.136 220.748 59.648C220.524 60.16 220.236 60.64 219.884 61.088C218.124 63.584 216.124 65.552 213.884 66.992C211.644 68.4 209.42 69.104 207.212 69.104C205.836 69.104 204.524 68.784 203.276 68.144C202.028 67.536 200.924 66.544 199.964 65.168C199.836 65.008 199.772 64.864 199.772 64.736C199.772 64.448 199.964 64.304 200.348 64.304C200.38 64.304 200.492 64.336 200.684 64.4C200.94 64.4 201.228 64.496 201.548 64.688C201.9 64.848 202.396 64.928 203.036 64.928C204.028 64.928 204.956 64.752 205.82 64.4C206.684 64.048 207.42 63.6 208.028 63.056C208.668 62.48 209.164 61.84 209.516 61.136C209.868 60.4 210.044 59.648 210.044 58.88C210.044 57.92 209.788 57.088 209.276 56.384C208.796 55.68 207.964 55.328 206.78 55.328C205.564 55.328 204.444 55.76 203.42 56.624C202.396 57.456 201.468 58.48 200.636 59.696C199.836 60.88 199.148 62.144 198.572 63.488C197.996 64.8 197.564 65.952 197.276 66.944C197.116 67.488 196.972 67.824 196.844 67.952C196.716 68.08 196.572 68.144 196.412 68.144C196.06 68.144 195.9 67.808 195.932 67.136C195.932 66.848 195.948 66.496 195.98 66.08C196.012 65.664 196.044 65.216 196.076 64.736C196.076 64.256 196.092 63.776 196.124 63.296C196.156 62.784 196.172 62.32 196.172 61.904C196.172 60.464 196.14 58.816 196.076 56.96C196.012 55.072 195.932 53.136 195.836 51.152C195.74 49.136 195.66 47.136 195.596 45.152C195.532 43.168 195.5 41.344 195.5 39.68C195.5 38.368 195.596 37.104 195.788 35.888C195.98 34.64 196.284 33.552 196.7 32.624C197.116 31.664 197.644 30.912 198.284 30.368C198.924 29.792 199.676 29.504 200.54 29.504C201.436 29.504 202.188 29.664 202.796 29.984C203.436 30.272 203.948 30.704 204.332 31.28C204.716 31.824 204.988 32.496 205.148 33.296C205.34 34.064 205.436 34.912 205.436 35.84C205.436 37.44 205.212 39.2 204.764 41.12C204.316 43.008 203.724 44.912 202.988 46.832C202.252 48.752 201.404 50.608 200.444 52.4C199.516 54.16 198.556 55.696 197.564 57.008C197.628 57.968 197.66 58.96 197.66 59.984C197.692 61.008 197.74 62.096 197.804 63.248C198.604 61.52 199.484 60.032 200.444 58.784C200.86 58.24 201.324 57.712 201.836 57.2C202.38 56.656 202.94 56.176 203.516 55.76C204.124 55.344 204.764 55.008 205.436 54.752C206.14 54.496 206.876 54.368 207.644 54.368C208.86 54.368 209.916 54.672 210.812 55.28C211.708 55.888 212.156 56.864 212.156 58.208C212.156 59.488 211.836 60.576 211.196 61.472C210.588 62.368 209.82 63.12 208.892 63.728C207.964 64.304 206.972 64.736 205.916 65.024C204.86 65.312 203.9 65.488 203.036 65.552C202.972 65.552 202.94 65.568 202.94 65.6C202.94 65.664 202.988 65.76 203.084 65.888C203.724 66.624 204.444 67.152 205.244 67.472C206.044 67.792 206.876 67.952 207.74 67.952C208.796 67.952 209.868 67.76 210.956 67.376C212.044 66.96 213.084 66.432 214.076 65.792C215.068 65.12 215.98 64.368 216.812 63.536C217.676 62.672 218.38 61.808 218.924 60.944C219.244 60.464 219.532 59.968 219.788 59.456C220.044 58.944 220.3 58.432 220.556 57.92L221.468 58.16ZM228.235 55.184C228.235 54.32 228.011 53.616 227.563 53.072C227.147 52.496 226.459 52.208 225.499 52.208C224.987 52.208 224.523 52.368 224.107 52.688C223.691 53.008 223.339 53.44 223.051 53.984C222.763 54.496 222.539 55.104 222.379 55.808C222.219 56.512 222.139 57.248 222.139 58.016C222.139 59.232 222.267 60.32 222.523 61.28C222.811 62.208 223.211 63.024 223.723 63.728C224.395 63.184 225.003 62.56 225.547 61.856C226.091 61.152 226.555 60.416 226.939 59.648C227.355 58.88 227.675 58.112 227.899 57.344C228.123 56.576 228.235 55.856 228.235 55.184ZM240.379 58.16C240.155 58.64 239.915 59.136 239.659 59.648C239.435 60.128 239.147 60.608 238.795 61.088C237.227 63.328 235.435 65.024 233.419 66.176C231.435 67.296 229.531 67.856 227.707 67.856C226.683 67.856 225.723 67.68 224.827 67.328C223.963 66.976 223.211 66.448 222.571 65.744C221.931 65.04 221.419 64.16 221.035 63.104C220.651 62.048 220.459 60.8 220.459 59.36C220.459 58.4 220.603 57.44 220.891 56.48C221.179 55.52 221.563 54.656 222.043 53.888C222.555 53.12 223.131 52.496 223.771 52.016C224.443 51.536 225.147 51.296 225.883 51.296C227.067 51.296 227.931 51.648 228.475 52.352C229.019 53.024 229.291 53.888 229.291 54.944C229.291 56.384 228.843 57.952 227.947 59.648C227.083 61.312 225.835 62.864 224.203 64.304C225.419 65.68 226.987 66.368 228.907 66.368C230.347 66.368 231.851 65.936 233.419 65.072C234.987 64.176 236.459 62.8 237.835 60.944C238.187 60.496 238.475 60.016 238.699 59.504C238.955 58.96 239.211 58.432 239.467 57.92L240.379 58.16Z" fill="black"/>
</svg>
