<svg width="10" height="7" viewBox="0 0 10 7" fill="none" xmlns="http://www.w3.org/2000/svg">
<path d="M3.99062 6.15294C3.90311 6.15311 3.81642 6.13601 3.73554 6.1026C3.65466 6.0692 3.58116 6.02015 3.51928 5.95827L0.691285 3.1296C0.627569 3.06815 0.57673 2.99462 0.541735 2.91331C0.506739 2.832 0.488287 2.74454 0.487456 2.65602C0.486625 2.5675 0.503431 2.4797 0.536894 2.39775C0.570356 2.31579 0.619805 2.24133 0.682356 2.17869C0.744906 2.11605 0.819305 2.06649 0.901211 2.03291C0.983117 1.99934 1.07089 1.98241 1.15941 1.98311C1.24793 1.98382 1.33542 2.00215 1.41678 2.03703C1.49814 2.07191 1.57174 2.12264 1.63328 2.18627L3.98995 4.54294L8.23328 0.300937C8.35829 0.175843 8.52787 0.105531 8.70471 0.105469C8.88156 0.105406 9.05119 0.175598 9.17628 0.300604C9.30138 0.425609 9.37169 0.595188 9.37175 0.772035C9.37181 0.948882 9.30162 1.11851 9.17662 1.2436L4.46195 5.95827C4.40007 6.02015 4.32658 6.0692 4.2457 6.1026C4.16481 6.13601 4.07813 6.15311 3.99062 6.15294Z" fill="#FFF9F4"/>
</svg>
